<?xml version="1.0" encoding="UTF-8" standalone="no"?>
<!DOCTYPE svg PUBLIC "-//W3C//DTD SVG 1.1//EN"
 "http://www.w3.org/Graphics/SVG/1.1/DTD/svg11.dtd">
<!-- Generated by graphviz version 2.40.1 (20161225.0304)
 -->
<!-- Title: pipeline Pages: 1 -->
<svg width="214pt" height="102pt"
 viewBox="0.00 0.00 214.00 102.00" xmlns="http://www.w3.org/2000/svg" xmlns:xlink="http://www.w3.org/1999/xlink">
<g id="graph0" class="graph" transform="scale(1 1) rotate(0) translate(4 98)">
<title>pipeline</title>
<polygon fill="#ffffff" stroke="transparent" points="-4,4 -4,-98 210,-98 210,4 -4,4"/>
<!-- n3 -->
<g id="node1" class="node">
<title>n3</title>
<polygon fill="#90ee90" stroke="#000000" points="116,-92 0,-92 0,-56 116,-56 116,-92"/>
<text text-anchor="middle" x="58" y="-70.3" font-family="Times,serif" font-size="14.00" fill="#000000">pull ocaml/opam2</text>
</g>
<!-- n1 -->
<g id="node3" class="node">
<title>n1</title>
<polygon fill="#ff4500" stroke="#000000" points="206,-94 152,-94 152,-56 206,-56 206,-94"/>
<text text-anchor="middle" x="179" y="-78.8" font-family="Times,serif" font-size="14.00" fill="#000000">build</text>
<text text-anchor="middle" x="179" y="-63.8" font-family="Times,serif" font-size="14.00" fill="#000000">4.08</text>
</g>
<!-- n3&#45;&gt;n1 -->
<g id="edge2" class="edge">
<title>n3&#45;&gt;n1</title>
<path fill="none" stroke="#000000" d="M116.0192,-74.4795C124.7066,-74.5513 133.4624,-74.6237 141.5684,-74.6906"/>
<polygon fill="#000000" stroke="#000000" points="141.7613,-78.1923 151.7899,-74.7751 141.8192,-71.1925 141.7613,-78.1923"/>
</g>
<!-- n5 -->
<g id="node4" class="node">
<title>n5</title>
<polygon fill="#90ee90" stroke="#000000" points="206,-38 152,-38 152,0 206,0 206,-38"/>
<text text-anchor="middle" x="179" y="-22.8" font-family="Times,serif" font-size="14.00" fill="#000000">build</text>
<text text-anchor="middle" x="179" y="-7.8" font-family="Times,serif" font-size="14.00" fill="#000000">4.07</text>
</g>
<!-- n3&#45;&gt;n5 -->
<g id="edge4" class="edge">
<title>n3&#45;&gt;n5</title>
<path fill="none" stroke="#000000" d="M97.6199,-55.9909C112.068,-49.4237 128.3268,-42.0333 142.4918,-35.5946"/>
<polygon fill="#000000" stroke="#000000" points="144.2605,-38.6353 151.9159,-31.311 141.3639,-32.2628 144.2605,-38.6353"/>
</g>
<!-- n4 -->
<g id="node2" class="node">
<title>n4</title>
<polygon fill="#90ee90" stroke="#000000" points="102.5,-38 13.5,-38 13.5,-2 102.5,-2 102.5,-38"/>
<text text-anchor="middle" x="58" y="-16.3" font-family="Times,serif" font-size="14.00" fill="#000000">head commit</text>
</g>
<!-- n4&#45;&gt;n1 -->
<g id="edge1" class="edge">
<title>n4&#45;&gt;n1</title>
<path fill="none" stroke="#000000" d="M97.6199,-38.0091C112.068,-44.5763 128.3268,-51.9667 142.4918,-58.4054"/>
<polygon fill="#000000" stroke="#000000" points="141.3639,-61.7372 151.9159,-62.689 144.2605,-55.3647 141.3639,-61.7372"/>
</g>
<!-- n4&#45;&gt;n5 -->
<g id="edge3" class="edge">
<title>n4&#45;&gt;n5</title>
<path fill="none" stroke="#000000" d="M102.7122,-19.6305C115.4169,-19.5255 129.1204,-19.4122 141.3602,-19.3111"/>
<polygon fill="#000000" stroke="#000000" points="141.7071,-22.8084 151.6778,-19.2258 141.6492,-15.8087 141.7071,-22.8084"/>
</g>
</g>
</svg>
