<?xml version="1.0" encoding="UTF-8" standalone="no"?>
<!DOCTYPE svg PUBLIC "-//W3C//DTD SVG 1.1//EN"
 "http://www.w3.org/Graphics/SVG/1.1/DTD/svg11.dtd">
<!-- Generated by graphviz version 2.40.1 (20161225.0304)
 -->
<!-- Title: pipeline Pages: 1 -->
<svg width="277pt" height="44pt"
 viewBox="0.00 0.00 277.00 44.00" xmlns="http://www.w3.org/2000/svg" xmlns:xlink="http://www.w3.org/1999/xlink">
<g id="graph0" class="graph" transform="scale(1 1) rotate(0) translate(4 40)">
<title>pipeline</title>
<polygon fill="#ffffff" stroke="transparent" points="-4,4 -4,-40 273,-40 273,4 -4,4"/>
<!-- n2 -->
<g id="node1" class="node">
<title>n2</title>
<polygon fill="#90ee90" stroke="#000000" points="89,-36 0,-36 0,0 89,0 89,-36"/>
<text text-anchor="middle" x="44.5" y="-14.3" font-family="Times,serif" font-size="14.00" fill="#000000">head commit</text>
</g>
<!-- n1 -->
<g id="node2" class="node">
<title>n1</title>
<polygon fill="#ffa500" stroke="#000000" points="179,-36 125,-36 125,0 179,0 179,-36"/>
<text text-anchor="middle" x="152" y="-14.3" font-family="Times,serif" font-size="14.00" fill="#000000">build</text>
</g>
<!-- n2&#45;&gt;n1 -->
<g id="edge1" class="edge">
<title>n2&#45;&gt;n1</title>
<path fill="none" stroke="#000000" d="M89.1558,-18C97.6735,-18 106.5051,-18 114.7611,-18"/>
<polygon fill="#000000" stroke="#000000" points="114.8439,-21.5001 124.8439,-18 114.8439,-14.5001 114.8439,-21.5001"/>
</g>
<!-- n0 -->
<g id="node3" class="node">
<title>n0</title>
<polygon fill="#d3d3d3" stroke="#000000" points="269,-36 215,-36 215,0 269,0 269,-36"/>
<text text-anchor="middle" x="242" y="-14.3" font-family="Times,serif" font-size="14.00" fill="#000000">run</text>
</g>
<!-- n1&#45;&gt;n0 -->
<g id="edge2" class="edge">
<title>n1&#45;&gt;n0</title>
<path fill="none" stroke="#000000" d="M179.003,-18C187.0277,-18 195.9665,-18 204.5309,-18"/>
<polygon fill="#000000" stroke="#000000" points="204.7051,-21.5001 214.705,-18 204.705,-14.5001 204.7051,-21.5001"/>
</g>
</g>
</svg>
