<?xml version="1.0" encoding="UTF-8" standalone="no"?>
<!DOCTYPE svg PUBLIC "-//W3C//DTD SVG 1.1//EN"
 "http://www.w3.org/Graphics/SVG/1.1/DTD/svg11.dtd">
<!-- Generated by graphviz version 2.40.1 (20161225.0304)
 -->
<!-- Title: pipeline Pages: 1 -->
<svg width="253pt" height="44pt"
 viewBox="0.00 0.00 253.00 44.00" xmlns="http://www.w3.org/2000/svg" xmlns:xlink="http://www.w3.org/1999/xlink">
<g id="graph0" class="graph" transform="scale(1 1) rotate(0) translate(4 40)">
<title>pipeline</title>
<polygon fill="#ffffff" stroke="transparent" points="-4,4 -4,-40 249,-40 249,4 -4,4"/>
<!-- n2 -->
<g id="node1" class="node">
<title>n2</title>
<polygon fill="#90ee90" stroke="#000000" points="65,-36 0,-36 0,0 65,0 65,-36"/>
<text text-anchor="middle" x="32.5" y="-14.3" font-family="Times,serif" font-size="14.00" fill="#000000">read gref</text>
</g>
<!-- n1 -->
<g id="node2" class="node">
<title>n1</title>
<polygon fill="#ffa500" stroke="#000000" points="155,-36 101,-36 101,0 155,0 155,-36"/>
<text text-anchor="middle" x="128" y="-14.3" font-family="Times,serif" font-size="14.00" fill="#000000">fetch</text>
</g>
<!-- n2&#45;&gt;n1 -->
<g id="edge1" class="edge">
<title>n2&#45;&gt;n1</title>
<path fill="none" stroke="#000000" d="M65.0986,-18C73.3962,-18 82.3749,-18 90.8796,-18"/>
<polygon fill="#000000" stroke="#000000" points="90.9408,-21.5001 100.9408,-18 90.9408,-14.5001 90.9408,-21.5001"/>
</g>
<!-- n0 -->
<g id="node3" class="node">
<title>n0</title>
<polygon fill="#d3d3d3" stroke="#000000" points="245,-36 191,-36 191,0 245,0 245,-36"/>
<text text-anchor="middle" x="218" y="-14.3" font-family="Times,serif" font-size="14.00" fill="#000000">build</text>
</g>
<!-- n1&#45;&gt;n0 -->
<g id="edge2" class="edge">
<title>n1&#45;&gt;n0</title>
<path fill="none" stroke="#000000" d="M155.003,-18C163.0277,-18 171.9665,-18 180.5309,-18"/>
<polygon fill="#000000" stroke="#000000" points="180.7051,-21.5001 190.705,-18 180.705,-14.5001 180.7051,-21.5001"/>
</g>
</g>
</svg>
