<?xml version="1.0" encoding="UTF-8" standalone="no"?>
<!DOCTYPE svg PUBLIC "-//W3C//DTD SVG 1.1//EN"
 "http://www.w3.org/Graphics/SVG/1.1/DTD/svg11.dtd">
<!-- Generated by graphviz version 2.40.1 (20161225.0304)
 -->
<!-- Title: pipeline Pages: 1 -->
<svg width="552pt" height="67pt"
 viewBox="0.00 0.00 552.00 67.00" xmlns="http://www.w3.org/2000/svg" xmlns:xlink="http://www.w3.org/1999/xlink">
<g id="graph0" class="graph" transform="scale(1 1) rotate(0) translate(4 63)">
<title>pipeline</title>
<polygon fill="#ffffff" stroke="transparent" points="-4,4 -4,-63 548,-63 548,4 -4,4"/>
<!-- n4 -->
<g id="node1" class="node">
<title>n4</title>
<polygon fill="#90ee90" stroke="#000000" points="54,-36 0,-36 0,0 54,0 54,-36"/>
<text text-anchor="middle" x="27" y="-14.3" font-family="Times,serif" font-size="14.00" fill="#000000">fetch</text>
</g>
<!-- n3 -->
<g id="node2" class="node">
<title>n3</title>
<polygon fill="#90ee90" stroke="#000000" points="144,-36 90,-36 90,0 144,0 144,-36"/>
<text text-anchor="middle" x="117" y="-14.3" font-family="Times,serif" font-size="14.00" fill="#000000">build</text>
</g>
<!-- n4&#45;&gt;n3 -->
<g id="edge1" class="edge">
<title>n4&#45;&gt;n3</title>
<path fill="none" stroke="#000000" d="M54.003,-18C62.0277,-18 70.9665,-18 79.5309,-18"/>
<polygon fill="#000000" stroke="#000000" points="79.7051,-21.5001 89.705,-18 79.705,-14.5001 79.7051,-21.5001"/>
</g>
<!-- n2 -->
<g id="node3" class="node">
<title>n2</title>
<polygon fill="#ffa500" stroke="#000000" points="311,-59 180,-59 180,-23 311,-23 311,-59"/>
<text text-anchor="middle" x="245.5" y="-37.3" font-family="Times,serif" font-size="14.00" fill="#000000">docker run make test</text>
</g>
<!-- n3&#45;&gt;n2 -->
<g id="edge2" class="edge">
<title>n3&#45;&gt;n2</title>
<path fill="none" stroke="#000000" d="M144.2515,-22.8777C151.9882,-24.2625 160.8107,-25.8416 169.948,-27.4771"/>
<polygon fill="#000000" stroke="#000000" points="169.4898,-30.9506 179.9501,-29.2673 170.7232,-24.0601 169.4898,-30.9506"/>
</g>
<!-- n1 -->
<g id="node4" class="node">
<title>n1</title>
<ellipse fill="#d3d3d3" stroke="#000000" cx="365" cy="-18" rx="18" ry="18"/>
</g>
<!-- n3&#45;&gt;n1 -->
<g id="edge4" class="edge">
<title>n3&#45;&gt;n1</title>
<path fill="none" stroke="#000000" d="M144.2708,-15.89C155.3503,-15.1315 168.2792,-14.3717 180,-14 238.193,-12.1545 252.8176,-11.848 311,-14 319.4548,-14.3127 328.6391,-14.8999 336.9948,-15.53"/>
<polygon fill="#000000" stroke="#000000" points="336.7708,-19.0232 347.0185,-16.3336 337.3302,-12.0456 336.7708,-19.0232"/>
</g>
<!-- n2&#45;&gt;n1 -->
<g id="edge3" class="edge">
<title>n2&#45;&gt;n1</title>
<path fill="none" stroke="#000000" stroke-dasharray="5,2" d="M311.1929,-28.3562C320.2908,-26.6051 329.203,-24.8898 337.0746,-23.3748"/>
<polygon fill="#000000" stroke="#000000" points="337.9251,-26.7754 347.0834,-21.4484 336.6021,-19.9015 337.9251,-26.7754"/>
</g>
<!-- n0 -->
<g id="node5" class="node">
<title>n0</title>
<polygon fill="#d3d3d3" stroke="#000000" points="544,-36 419,-36 419,0 544,0 544,-36"/>
<text text-anchor="middle" x="481.5" y="-14.3" font-family="Times,serif" font-size="14.00" fill="#000000">docker push foo/bar</text>
</g>
<!-- n1&#45;&gt;n0 -->
<g id="edge5" class="edge">
<title>n1&#45;&gt;n0</title>
<path fill="none" stroke="#000000" d="M383.2031,-18C390.5176,-18 399.4649,-18 408.9516,-18"/>
<polygon fill="#000000" stroke="#000000" points="408.9871,-21.5001 418.987,-18 408.987,-14.5001 408.9871,-21.5001"/>
</g>
</g>
</svg>
